<svg xmlns="http://www.w3.org/2000/svg" viewBox="0 0 512.001 512.001"><path d="M173.751 392.657c2.248 7.762-2.221 15.877-9.982 18.123l-13.227 3.83c-7.762 2.248-15.875-2.221-18.123-9.982L92.44 266.575c-2.248-7.762 2.221-15.875 9.982-18.123l13.227-3.83c7.762-2.248 15.875 2.223 18.123 9.984l39.979 138.051z" fill="#2d404e"/><path fill="#2d404e" d="M92.441 266.575l-10.9 3.522 35.714 124.791 11.368-3.369z"/><path d="M71.212 227.497l10.328 42.6 35.715 124.791s4.734 15.061 7.746 18.504c0 0-7.746 12.479-12.479 12.479 0 0-4.303-5.594-11.619-30.982-7.314-25.39-31.841-111.452-31.841-111.452s-4.305-14.199-6.025-25.818c-1.72-11.619-6.455-30.121-6.455-30.121h14.63v-.001z" fill="#f2b643"/><path d="M100.904 394.888c-7.315-25.389-31.842-111.451-31.842-111.451s-4.305-14.199-6.025-25.818c-1.72-11.619-6.455-30.121-6.455-30.121l-18.934 3.873s-.572 48.051 4.018 80.182c4.59 32.129 17.213 69.709 26.965 83.336 9.754 13.627 12.91 16.783 12.91 16.783s23.666 13.34 30.982 14.199c0-.001-4.303-5.594-11.619-30.983z" fill="#9d6227"/><path d="M117.255 394.888s4.734 15.061 7.746 18.504c0 0 .861-7.029-3.873-19.652l-3.873 1.148z" fill="#d89932"/><path d="M56.582 225.775s-6.023-20.654-3.012-40.018c3.012-19.365 12.479-50.777 30.121-80.898l-7.744-4.734s-20.225 38.297-26.25 57.232c-6.023 18.934-12.08 60.668-12.07 71.861l18.955-3.443z" fill="#9d6227"/><path d="M56.582 225.775s-6.023-20.654-3.012-40.018c3.012-19.365 12.479-50.777 30.121-80.898l9.324 5.881s-40.164 55.365-22.664 115.035H56.582z" fill="#f2b643"/><path d="M314.093 392.657c-2.248 7.762 2.223 15.877 9.984 18.123l13.225 3.83c7.762 2.248 15.877-2.221 18.125-9.982l39.979-138.053c2.246-7.762-2.223-15.875-9.984-18.123l-13.227-3.83c-7.762-2.248-15.875 2.223-18.123 9.984l-39.979 138.051z" fill="#2d404e"/><path fill="#2d404e" d="M395.406 266.575l10.898 3.522-35.715 124.791-11.367-3.369z"/><path d="M416.632 227.497l-10.328 42.6-35.715 124.791s-4.734 15.061-7.746 18.504c0 0 7.746 12.479 12.479 12.479 0 0 4.305-5.594 11.619-30.982s31.844-111.451 31.844-111.451 4.303-14.199 6.023-25.818 6.455-30.121 6.455-30.121h-14.631v-.002z" fill="#f2b643"/><path d="M450.197 231.37l-18.934-3.873s-4.734 18.502-6.455 30.121-6.023 25.818-6.023 25.818-24.529 86.062-31.844 111.451c-7.315 25.389-11.619 30.982-11.619 30.982 7.316-.859 30.982-14.199 30.982-14.199s3.156-3.156 12.91-16.783 22.377-51.207 26.967-83.336c4.59-32.13 4.016-80.181 4.016-80.181z" fill="#9d6227"/><path d="M370.589 394.888s-4.734 15.061-7.746 18.504c0 0-.861-7.029 3.873-19.652l3.873 1.148z" fill="#d89932"/><path d="M431.263 225.775s6.023-20.654 3.012-40.018c-3.012-19.365-12.479-50.777-30.121-80.898l7.746-4.734s20.225 38.297 26.248 57.232c6.025 18.934 12.08 60.668 12.072 71.861l-18.957-3.443z" fill="#9d6227"/><path d="M431.263 225.775s6.023-20.654 3.012-40.018c-3.012-19.365-12.479-50.777-30.121-80.898l-9.322 5.881s40.164 55.365 22.664 115.035h13.767z" fill="#f2b643"/><path d="M328.562 20.374C288.113-.856 243.923.005 243.923.005s-44.191-.861-84.641 20.369c-40.449 21.229-70.283 57.375-82.045 77.17l15.777 10.9s12.623-21.803 42.457-46.762c0 0 .289-11.188 12.91-21.801 12.621-10.615 41.906-26.967 95.541-29.549 53.633 2.582 82.918 18.934 95.539 29.549 12.623 10.613 12.91 21.801 12.91 21.801 29.834 24.959 42.459 46.762 42.459 46.762l15.777-10.9c-11.762-19.795-41.596-55.941-82.045-77.17z" fill="#9d6227"/><path d="M348.644 44.472l-1.611 1.303s5.914 5.51 7.205 12.18c0 0 22.807 20.439 34.424 37.436 0 0 1.723-7.314-2.797-14.846-4.518-7.53-37.221-36.073-37.221-36.073zM243.923 10.333c-50.688 2.439-79.627 17.178-93.307 27.748 0 0 6.516 6.246 15.266 8.541s21.658 1.436 28.975 1.004c7.314-.43 49.066-.717 49.066-.717s41.75.287 49.066.717c7.314.432 20.225 1.291 28.975-1.004s15.264-8.541 15.264-8.541c-13.68-10.57-42.619-25.308-93.305-27.748zm200.813 311.502l7.064 2.463s5.008-10.58 14.428-7.295c9.42 3.281 9.842 10.912 5.463 23.473-6.43 18.447-11.688 18.373-14.043 17.553l-8.072 23.156-8.002-3.051 7.936-22.764s-7.771-.285-2.105-17.201l-5.973-2.08 3.304-14.254z" fill="#2d404e"/><path d="M441.574 378.134S395.224 495.39 281.629 495.39v8.84s115.426 5.553 167.947-123.045l-8.002-3.051z" fill="#2d404e"/><path d="M281.685 505.538c0 3.568-3.324 6.463-7.422 6.463H236.22c-4.1 0-7.422-2.895-7.422-6.463v-10.266c0-3.568 3.322-6.461 7.422-6.461h38.043c4.098 0 7.422 2.893 7.422 6.461v10.266zM139.203 44.472l1.609 1.303s-5.912 5.51-7.203 12.18c0 0-22.807 20.439-34.426 37.436 0 0-1.721-7.314 2.797-14.846 4.518-7.53 37.223-36.073 37.223-36.073z" fill="#2d404e"/><path d="M100.904 394.888c7.316 25.389 11.619 30.982 11.619 30.982-7.316-.859-30.982-14.199-30.982-14.199s-3.156-3.156-12.91-16.783c-9.752-13.627-22.375-51.207-26.965-83.336-4.59-32.131-4.018-80.182-4.018-80.182l4.131-.846s.604 57.646 7.488 84.756 29.691 71.002 39.588 76.166c9.898 5.163 12.049 3.442 12.049 3.442zm286.037 0c-7.314 25.389-11.619 30.982-11.619 30.982 7.316-.859 30.982-14.199 30.982-14.199s3.156-3.156 12.91-16.783 22.377-51.207 26.967-83.336c4.59-32.131 4.016-80.182 4.016-80.182l-4.129-.846s-.604 57.646-7.49 84.756c-6.885 27.109-29.691 71.002-39.588 76.166-9.897 5.163-12.049 3.442-12.049 3.442zM41.062 228.595s2.611-25.195 5.623-44.561c3.012-19.363 15.082-51.672 32.725-81.793l-3.463-2.117s-20.225 38.297-26.25 57.232c-6.023 18.934-12.08 60.668-12.07 71.861l3.435-.622zm405.723 0s-2.611-25.195-5.625-44.561c-3.012-19.363-15.082-51.672-32.725-81.793l3.465-2.117s20.225 38.297 26.248 57.232c6.025 18.934 12.08 60.668 12.072 71.861l-3.435-.622zM79.414 99.048l-2.176-1.504C89 77.749 118.834 41.603 159.283 20.374c0 0-47.141 27.252-79.869 78.674zm329.216-.139l1.979-1.365c-11.764-19.795-41.598-55.941-82.047-77.17 0 0 44.406 23.102 80.068 78.535z" fill="#915a26"/><path d="M60.658 225.775h-4.076s-6.023-20.654-3.012-40.018c3.012-19.365 12.479-50.777 30.121-80.898l2.129 1.34s-25.365 42.121-29.238 79.559c-3.057 24.151 4.076 40.017 4.076 40.017zm366.529 0h4.076s6.023-20.654 3.012-40.018c-3.012-19.365-12.479-50.777-30.121-80.898l-2.127 1.34s25.363 42.121 29.236 79.559c3.057 24.151-4.076 40.017-4.076 40.017zM118.511 421.964c-2.043 2.174-4.225 3.906-5.988 3.906 0 0-4.303-5.594-11.619-30.982-7.315-25.389-31.842-111.451-31.842-111.451s-4.305-14.199-6.025-25.818c-1.72-11.619-6.455-30.121-6.455-30.121h4.076s6.984 37.006 12.213 55.08c5.227 18.072 32.336 110.16 37.5 123.068 5.164 12.91 8.14 16.318 8.14 16.318zm250.822 0c2.045 2.174 4.227 3.906 5.988 3.906 0 0 4.305-5.594 11.619-30.982s31.844-111.451 31.844-111.451 4.303-14.199 6.023-25.818 6.455-30.121 6.455-30.121h-4.076s-6.984 37.006-12.211 55.08c-5.229 18.072-32.338 110.16-37.502 123.068-5.163 12.91-8.14 16.318-8.14 16.318z" fill="#d89932"/><path d="M102.423 248.452c-7.762 2.248-12.23 10.361-9.982 18.123l39.979 138.053c2.248 7.762 10.361 12.23 18.123 9.982l-48.12-166.158zm282.998 0c7.762 2.248 12.23 10.361 9.984 18.123l-39.979 138.053c-2.248 7.762-10.363 12.23-18.125 9.982l48.12-166.158z" fill="#253744"/><path fill="#223440" d="M92.441 266.575l-6.621 2.139 35.308 125.025 7.495-2.22zm302.965 0l6.621 2.139-35.311 125.025-7.494-2.22z"/><path d="M153.65 40.56c-1.922-1.412-3.033-2.479-3.033-2.479 13.68-10.57 42.619-25.309 93.307-27.748 50.686 2.439 79.625 17.178 93.305 27.748 0 0-.895.859-2.467 2.057 0 0-29.684-19.764-90.838-19.764-61.157 0-90.274 20.186-90.274 20.186zm289.924 338.336l-2-.762 7.936-22.764s-7.771-.285-2.105-17.201l-5.973-2.08 3.305-14.254 7.064 2.463s5.008-10.58 14.428-7.295c0 0-5.047-1.139-9.689 9.68-4.641 10.818-9.283 23.65-4.096 26.928l-8.87 25.285zM228.798 505.538c0 3.568 3.322 6.463 7.422 6.463h38.043c4.098 0 7.422-2.895 7.422-6.463h-52.887z" fill="#253744"/><path fill="#f2b643" d="M239.863 488.812h6.055v23.189h-6.055z"/><path fill="#d89932" d="M239.863 505.538h6.055v6.463h-6.055z"/></svg>