<svg xmlns="http://www.w3.org/2000/svg" viewBox="0 0 512 512"><path d="M339.276 368.445a7.952 7.952 0 0 0-5.273-3.844c-2.195-.492-4.539.023-6.375 1.359-1.516 1.102-2.922 1.711-4.328 1.859-4.93.617-9.008-3.391-11.024-5.789-4.195-4.984-7.101-12.367-7.984-20.258-.883-7.883.32-15.727 3.313-21.516 1.391-2.688 4.367-7.211 9.133-8.031a9.07 9.07 0 0 0 .852-.063c2.82-.375 5.469-2.789 6.563-5.414.57-1.367 1.125-2.734 1.859-4.063 6.539-11.773 9.992-25.156 9.992-38.688 0-37.625-25.594-69.711-62.242-78.023a8.375 8.375 0 0 0-1.766-.195h-32c-.594 0-1.188.07-1.773.195-36.641 8.32-62.227 40.406-62.227 78.023 0 13.531 3.453 26.914 9.992 38.688.734 1.328 1.289 2.695 2.094 4.641a8.015 8.015 0 0 0 6.328 4.836c.281.039.602.063.93.063 7.367 1.258 14.172 13.461 12.367 29.547-.883 7.891-3.789 15.273-7.984 20.258-2.016 2.398-6.086 6.398-11.039 5.789-1.391-.148-2.805-.766-4.328-1.867-1.836-1.344-4.148-1.859-6.375-1.352a8.016 8.016 0 0 0-5.273 3.844c-10.156 17.734-14.352 37.898-12.125 58.32 4.828 44.148 40.359 79.734 84.461 84.625 3.602.406 7.289.609 10.953.609 3.672 0 7.359-.203 10.945-.609 44.117-4.891 79.648-40.477 84.477-84.625 2.224-20.428-1.971-40.592-12.143-58.319z" fill="#7e5c62"/><path d="M334.003 364.601c-2.195-.492-4.539.023-6.375 1.359-1.516 1.102-2.922 1.711-4.328 1.859-4.93.617-9.008-3.391-11.024-5.789-4.195-4.984-7.101-12.367-7.984-20.258-.883-7.883.32-15.727 3.313-21.516 1.391-2.688 4.367-7.211 9.133-8.031a9.07 9.07 0 0 0 .852-.063c2.82-.375 5.469-2.789 6.563-5.414.57-1.367 1.125-2.734 1.859-4.063 6.539-11.773 9.992-25.156 9.992-38.688 0-37.625-25.594-69.711-62.242-78.023a8.375 8.375 0 0 0-1.766-.195h-16.219v326.206c.073 0 .146.012.219.012 3.672 0 7.359-.203 10.945-.609 44.117-4.891 79.648-40.477 84.477-84.625 2.227-20.43-1.969-40.594-12.141-58.32a7.963 7.963 0 0 0-5.274-3.842z" fill="#996459"/><path d="M255.995 424c-4.422 0-8-3.578-8-8V304c0-4.422 3.578-8 8-8s8 3.578 8 8v112c0 4.422-3.578 8-8 8z" fill="#868491"/><path d="M271.995 368h-32c-4.422 0-8-3.578-8-8s3.578-8 8-8h32c4.422 0 8 3.578 8 8s-3.578 8-8 8zm-.008-296.273A7.995 7.995 0 0 0 263.995 64h-16a7.995 7.995 0 0 0-7.992 7.727l-8 232a7.969 7.969 0 0 0 2.242 5.828 7.982 7.982 0 0 0 5.75 2.445h32a7.986 7.986 0 0 0 5.75-2.445 7.969 7.969 0 0 0 2.242-5.828l-8-232zm6.149 339.148a7.993 7.993 0 0 0-6.141-2.875h-32a7.993 7.993 0 0 0-6.141 2.875 7.965 7.965 0 0 0-1.727 6.555l16 88c.688 3.805 4 6.57 7.867 6.57s7.18-2.766 7.867-6.57l16-88a7.957 7.957 0 0 0-1.725-6.555zM239.995 32h-16c-4.422 0-8-3.578-8-8s3.578-8 8-8h16c4.422 0 8 3.578 8 8s-3.578 8-8 8zm0 32h-16c-4.422 0-8-3.578-8-8s3.578-8 8-8h16c4.422 0 8 3.578 8 8s-3.578 8-8 8zm48-32h-16c-4.422 0-8-3.578-8-8s3.578-8 8-8h16c4.422 0 8 3.578 8 8s-3.578 8-8 8zm0 32h-16c-4.422 0-8-3.578-8-8s3.578-8 8-8h16c4.422 0 8 3.578 8 8s-3.578 8-8 8z" fill="#5c546a"/><path d="M255.995 0c-13.234 0-24 10.766-24 24v32c0 13.234 10.766 24 24 24s24-10.766 24-24V24c0-13.234-10.766-24-24-24z" fill="#7e5c62"/></svg>