<svg xmlns="http://www.w3.org/2000/svg" viewBox="0 0 512 512"><path fill="#605353" d="M247.467 407.268h17.067v81.192h-17.067z"/><path d="M256 415.807c-81.702 0-148.169-66.469-148.169-148.171v-55.855h17.067v55.855c0 72.291 58.812 131.104 131.103 131.104s131.103-58.813 131.103-131.104v-55.855h17.067v55.855c-.002 81.702-66.469 148.171-148.171 148.171z" fill="#8b7e7f"/><path fill="#605353" d="M93.093 203.253h325.814v17.067H93.093z"/><path d="M93.091 231.952a8.533 8.533 0 0 1-8.533-8.533v-23.273a8.533 8.533 0 0 1 17.066 0v23.273a8.534 8.534 0 0 1-8.533 8.533zm325.818 0a8.533 8.533 0 0 1-8.533-8.533v-23.273a8.533 8.533 0 0 1 17.066 0v23.273a8.533 8.533 0 0 1-8.533 8.533z" fill="#c2b8b9"/><path d="M256 0c-51.413 0-93.091 41.678-93.091 93.091v123.992H349.09V93.091C349.091 41.678 307.413 0 256 0z" fill="#8b7e7f"/><path d="M395.636 512H116.364v-11.636c0-12.8 10.473-23.273 23.273-23.273h232.727c12.8 0 23.273 10.473 23.273 23.273V512h-.001zM151.273 194.327v26.376l11.378 8.533-11.378 8.533v29.867c0 57.747 46.981 104.727 104.727 104.727s104.727-46.981 104.727-104.727v-29.867l-11.378-8.533 11.378-8.533v-26.376H151.273z" fill="#463836"/><path fill="#605353" d="M151.279 220.706h209.453v17.067H151.279z"/><g fill="#463836"><circle cx="209.454" cy="147.786" r="8.533"/><circle cx="256" cy="147.786" r="8.533"/><circle cx="302.547" cy="147.786" r="8.533"/><circle cx="209.454" cy="100.659" r="8.533"/><circle cx="256" cy="100.659" r="8.533"/><circle cx="302.547" cy="100.659" r="8.533"/><circle cx="212.332" cy="54.109" r="8.533"/><circle cx="256" cy="54.109" r="8.533"/><circle cx="300.794" cy="54.109" r="8.533"/></g></svg>